PathFileType	4	(X/Y/Z)	Patient4_TMGait_0pt3_02_right_16.trc.trc
DataRate	CameraRate	NumFrames	NumMarkers	Units	OrigDataRate	OrigDataStartFrame	OrigNumFrames
51.851851851852	51.851851851852	4	33	mm	51.851851851852	1	       141
Frame#	Time	Sacral			L.Shoulder			Chest			R.Shoulder			Neck			R.ASIS			L.ASIS			R.Thigh.Superior			R.Thigh.Lateral			R.Thigh.Inferior			R.Patella			L.Thigh.Superior			L.Thigh.Lateral			L.Thigh.Inferior			L.Patella			L.Shank.Superior			L.Shank.Lateral			L.Shank.Inferior			R.Shank.Superior			R.Shank.Lateral			R.Shank.Inferior			R.Heel			R.Midfoot.Superior			R.Midfoot.Lateral			R.Toe			L.Heel			L.Midfoot.Lateral			L.Midfoot.Superior			L.Toe			L.Elbow			L.Wrist			R.Elbow			R.Wrist			
		X1	Y1	Z1	X2	Y2	Z2	X3	Y3	Z3	X4	Y4	Z4	X5	Y5	Z5	X6	Y6	Z6	X7	Y7	Z7	X8	Y8	Z8	X9	Y9	Z9	X10	Y10	Z10	X11	Y11	Z11	X12	Y12	Z12	X13	Y13	Z13	X14	Y14	Z14	X15	Y15	Z15	X16	Y16	Z16	X17	Y17	Z17	X18	Y18	Z18	X19	Y19	Z19	X20	Y20	Z20	X21	Y21	Z21	X22	Y22	Z22	X23	Y23	Z23	X24	Y24	Z24	X25	Y25	Z25	X26	Y26	Z26	X27	Y27	Z27	X28	Y28	Z28	X29	Y29	Z29	X30	Y30	Z30	X31	Y31	Z31	X32	Y32	Z32	X33	Y33	Z33	

1	30.040000000000	707.699066115330	984.072186900024	439.327847306926	853.264618361712	1410.745651505428	228.097913894421	971.416536994042	1355.343306678169	383.685309536881	902.084388619131	1435.748209925701	559.858912849070	846.298908867375	1480.901886356816	383.775124159420	946.063516585104	930.756772235167	539.063856180917	917.367018101787	953.210045507663	268.102657029306	1021.151432618016	745.416028709564	502.371747917344	975.665825083685	625.368781208666	572.897746939853	1054.408793456144	582.010342715411	483.029517391299	1063.949979971563	465.837848879178	505.231017687088	993.991351128385	751.986125480651	314.050865484367	926.849134227063	620.985874231451	261.585246588754	1015.885758506385	558.125658052887	335.876619858813	1023.575983380776	485.175204177038	347.313925280783	989.651466869632	407.865193101024	340.950695372830	895.221137968878	298.142855248749	287.280095014289	930.971697948955	187.209301632838	365.935643184059	977.525434875639	400.932790883929	518.511243470595	851.063215796207	380.436328482087	579.207174064818	823.257458385783	272.319687526793	537.165371277836	624.779521074074	254.276555734101	499.509025148877	764.359462916745	149.910169512770	564.730516403095	658.861924995590	190.739057175783	585.165239096527	784.219032283217	26.725829818580	608.086763246456	790.811565841579	37.557392707991	403.334294369745	866.170486396737	35.276928824034	323.578108738722	948.348843972727	96.569440005322	353.549628025955	1076.966333014606	49.312885029838	325.910596037799	915.806190105455	1067.018365714928	104.376368718860	1069.252091623542	855.392172710813	97.329056677267	979.906863422438	1093.664364026008	681.877158986044	1223.816415624197	1017.758982844044	627.265035324836	
2	30.059285714286	706.093964876259	981.959360509255	435.153286612147	855.738704248898	1410.837175094098	228.923299703983	970.996811502321	1353.949925541500	385.982351221602	898.130243331697	1431.873282973216	561.736348067090	846.180713689117	1479.367964018664	385.205168281059	943.820467915173	929.261926269231	537.666537417692	917.670040267739	951.333329142907	266.422514518037	1021.821848031784	746.579943701038	500.248401706990	978.848366118727	626.264190772460	570.771316729557	1058.248749551445	584.297177006928	480.663517933013	1070.058028558683	468.104102574348	502.966363095551	994.392170088688	750.200334599035	312.602580489080	927.507479946936	618.989752399273	260.483061111950	1016.501783071061	556.479060631922	335.439734259439	1024.286621450528	483.088708825935	347.183787663619	989.227853479302	405.805737607090	340.939976171515	893.340588716366	297.392508101577	287.253824436033	927.009171835444	186.093534315387	366.018999496966	983.940084558632	402.329402598914	517.193360242340	857.351524961777	381.214998487533	577.818068755868	830.785207742518	272.292441415038	536.764627729147	630.408344296561	248.141070773841	500.237191704275	775.225849520411	152.155047863234	564.990951205284	668.341317073580	188.152921956997	586.311095342027	801.622847430281	31.477244486073	610.129825844700	784.938102530793	37.655846647819	403.343751310517	860.325774400233	35.317603860857	323.599394679185	942.773361027184	96.317872431530	353.759516266889	1071.241506860619	48.565988744136	325.925025274281	926.925549736859	1070.961468038069	101.725736945091	1091.158251536934	868.760218992397	96.122075732478	961.745018912615	1086.573539183096	682.283597483624	1188.922386857470	981.203206910641	634.948243410780	
3	30.078571428571	704.496504649640	980.116034565702	430.904223219174	858.402271146648	1411.221271156664	229.880611542013	970.640654379049	1352.758346705940	388.437075329876	894.134711072006	1428.154819179947	563.701346153362	846.129938933955	1478.057861113699	386.773808630817	941.542486325879	928.026811292448	536.290626427011	918.053720251751	949.695188632303	264.758287096615	1022.421053787363	747.970839340269	498.191109436617	981.895829531845	627.407306566941	568.782692386087	1061.925665220589	586.769062895824	478.477430767829	1076.027671522626	470.680059180681	500.931078318808	994.638019973963	748.477677113744	311.158935281394	927.871704706161	617.110260878693	259.378104306199	1016.743725220211	554.857291035640	334.982379076529	1024.558763253530	481.071699390516	347.036065603759	988.398515263806	403.841329326165	340.899246604735	891.124250032713	296.675983477275	287.202697538141	922.795754572615	185.029897747757	366.079454041680	990.480990752798	403.855938104100	516.087980174004	863.928435687026	381.633451005874	576.731928645320	838.987290792407	271.853221684493	536.587802983621	637.007579311195	240.872938615873	501.308621017546	787.130832471132	153.746849601852	565.385622991577	678.904944434018	184.508044760772	587.696888267850	820.405143360435	35.779636169231	612.093682035833	778.907288238521	37.749527226388	403.352697478538	854.327086761964	35.357441205752	323.617369068219	937.030092293161	96.074852081317	353.949437803188	1065.361034003396	47.838054604515	325.934300257069	938.290612088588	1075.403276605900	99.061831273042	1113.272450723559	882.863142982213	94.971294507018	942.968841261560	1079.770579756059	682.613695222964	1151.999351557123	945.368031556391	642.878745622866	
4	30.097857142857	702.967571033194	978.749160204098	426.673194760835	861.279887132406	1412.034724711092	231.018186215571	970.393566679953	1351.909045045415	391.063122415564	890.202079490799	1424.800837835100	565.738349364334	846.188607195472	1477.129438397578	388.505822649350	939.273346773754	927.220278606887	535.009147461214	918.557192391359	948.472142709285	263.188450086859	1022.866360104978	749.641833527699	496.325804251690	984.592486945667	628.869047648460	567.082691403166	1065.198801745356	589.424438704891	476.651190894458	1081.561451975659	473.634524653284	499.314974758931	994.628659036152	746.903165656201	309.787090873335	927.763947499118	615.475393739063	258.301696503723	1016.381448648614	553.327735596926	334.511465879880	1024.122172868267	479.228523017652	346.865474339404	986.953584612420	402.090322213842	340.810388774486	888.450770806765	296.034421765820	287.109384229553	918.319545356182	184.082635478364	366.101403669556	996.980270334127	405.541487105056	515.343819791617	870.749826723599	381.503111457491	576.139365227042	847.980542374669	270.842841054964	536.752258047105	644.967799693848	232.159875838138	502.844402689270	800.285675363680	154.374713606775	565.971303164428	690.871307529537	179.444434095441	589.387105128873	840.720971773365	39.385906689154	613.881147330374	772.818742186901	37.834589576984	403.358065644598	848.274395885572	35.393801092362	323.629532953775	931.204458621261	95.852279661741	354.103603804572	1059.420040026687	47.162374015994	325.937181242075	949.676824845073	1080.470872991491	96.465820583829	1135.014251136455	897.659734808163	93.954662531530	923.805070151419	1073.702767793322	682.827400166276	1113.277735168534	911.893216574278	650.889936640649	
